# xmcd
#
# Track frame offsets: 
#        150
#        11687
#        21082
#        32435
#        43952
#        56562
#        67045
#        77637
#        89700
#        101277
#        112307
#        123010
#        135397
#        149257
#        161062
#        171997
#        182807
#        193790
#        204002
#        215860
#        226027
#        237117
#        249092
#        258935
#        271772
#        281350
#        295785
#        309520
#        322452
#
# Disc length: 4462 seconds
#
# Revision: 0
# Processed by: cddbd v1.5.2PL0 Copyright (c) Steve Scherf et al.
# Submitted via: ExactAudioCopy v1.0b3
#
DISCID=a0116c1d
DTITLE=Bob Wills and His Texas Playboys - Faded Love 1947-1973 [CD5]
DYEAR=2005
DGENRE=Country
TTITLE0=Beaumont Rag
TTITLE1=Don't Let The Deal Go Down
TTITLE2=I'll Follow You Wherever You Go
TTITLE3=Four Or Five Times
TTITLE4=San Antonio Rose
TTITLE5=Spanish Two-Step
TTITLE6=Lone Star Rag
TTITLE7=The Boston Fancy
TTITLE8=Hoopaw Rag
TTITLE9=Don't Keep It A Secret
TTITLE10=Roll Your Own
TTITLE11=My Shoes Keep Walking Back To You
TTITLE12=I Wonder If You Feel The Way I Do
TTITLE13=Sugar Baby
TTITLE14=So Let's Rock
TTITLE15=The Bunny With The Powder Puff Tail
TTITLE16=Texas Fiddler
TTITLE17=Billy's Bounce
TTITLE18=Midnight In Old Amarillo
TTITLE19=Coquette
TTITLE20=New Roadside Rag
TTITLE21=Orange Blossom Special
TTITLE22=Little Star Of Heaven
TTITLE23=It's The Bottle Talkin'
TTITLE24=Gotta Walk Alone
TTITLE25=Lily Dale
TTITLE26=New Faded Love
TTITLE27=Toodleumbo
TTITLE28=Bob's Breakdown
EXTD=
EXTT0=
EXTT1=
EXTT2=
EXTT3=
EXTT4=
EXTT5=
EXTT6=
EXTT7=
EXTT8=
EXTT9=
EXTT10=
EXTT11=
EXTT12=
EXTT13=
EXTT14=
EXTT15=
EXTT16=
EXTT17=
EXTT18=
EXTT19=
EXTT20=
EXTT21=
EXTT22=
EXTT23=
EXTT24=
EXTT25=
EXTT26=
EXTT27=
EXTT28=
PLAYORDER=
